<svg width="789" height="179" viewBox="0 0 789 179" fill="none" xmlns="http://www.w3.org/2000/svg">
<rect y="52" width="15" height="102" rx="7.5" fill="#6684FF"/>
<rect x="29" y="78" width="15" height="50" rx="7.5" fill="#6684FF"/>
<rect x="58" y="61" width="15" height="84" rx="7.5" fill="#6684FF"/>
<rect x="87" y="69" width="15" height="68" rx="7.5" fill="#6684FF"/>
<rect x="116" y="27" width="15" height="152" rx="7.5" fill="#6684FF"/>
<rect x="145" y="35" width="15" height="136" rx="7.5" fill="#6684FF"/>
<rect x="174" y="73" width="15" height="60" rx="7.5" fill="#6684FF"/>
<rect x="203" y="52" width="15" height="102" rx="7.5" fill="#6684FF"/>
<rect x="231" y="78" width="15" height="50" rx="7.5" fill="#6684FF"/>
<path d="M282.608 130C281.744 130 281.216 129.568 281.024 128.704L261.872 37.552C261.584 36.304 262.016 35.68 263.168 35.68H276.56C277.424 35.68 277.952 36.112 278.144 36.976L287.504 82.912C288.368 87.808 289.088 92.752 289.664 97.744C290.24 102.736 290.672 107.68 290.96 112.576H291.248C291.92 109.216 292.592 105.904 293.264 102.64C293.936 99.28 294.656 95.968 295.424 92.704L303.776 56.704L299.744 39.424C299.648 38.848 299.696 38.416 299.888 38.128C300.176 37.744 300.56 37.552 301.04 37.552H314.144C314.912 37.552 315.392 37.984 315.584 38.848L326.384 92.416C327.056 95.776 327.632 99.136 328.112 102.496C328.688 105.856 329.216 109.216 329.696 112.576H329.84C330.32 107.68 330.8 102.736 331.28 97.744C331.856 92.752 332.576 87.664 333.44 82.48L342.368 36.976C342.56 36.112 343.088 35.68 343.952 35.68H357.488C358.64 35.68 359.024 36.304 358.64 37.552L339.776 128.56C339.488 129.52 338.96 130 338.192 130H322.352C321.488 130 320.96 129.52 320.768 128.56L314.432 97.168C313.76 94 313.136 90.88 312.56 87.808C311.984 84.64 311.456 81.52 310.976 78.448H310.544C309.968 81.52 309.344 84.592 308.672 87.664C308.096 90.736 307.376 93.904 306.512 97.168L299.456 128.704C299.264 129.568 298.736 130 297.872 130H282.608ZM399.528 130C398.76 130 398.232 129.472 397.944 128.416C397.752 127.072 397.512 125.2 397.224 122.8C397.032 120.304 396.936 118.096 396.936 116.176L395.496 112.864V79.888C395.496 76.336 394.968 73.936 393.912 72.688C392.952 71.344 391.032 70.672 388.152 70.672C382.968 70.672 380.568 73.408 380.952 78.88C381.048 79.936 380.52 80.464 379.368 80.464H367.848C366.792 80.464 366.216 79.744 366.12 78.304C365.544 71.776 367.224 66.736 371.16 63.184C375.096 59.632 380.952 57.856 388.728 57.856C396.6 57.856 402.312 59.632 405.864 63.184C409.512 66.64 411.336 72.256 411.336 80.032V112C411.336 115.84 411.384 119.056 411.48 121.648C411.672 124.24 411.816 126.4 411.912 128.128C412.104 129.376 411.672 130 410.616 130H399.528ZM378.216 131.152C373.608 131.152 370.008 129.472 367.416 126.112C364.92 122.752 363.672 118 363.672 111.856C363.672 104.848 365.4 99.52 368.856 95.872C372.408 92.128 378.408 89.824 386.856 88.96L397.08 87.664V97.6L389.304 98.464C385.56 98.944 382.872 100.096 381.24 101.92C379.704 103.648 378.936 106.288 378.936 109.84C378.936 112.72 379.368 114.88 380.232 116.32C381.096 117.76 382.44 118.48 384.264 118.48C386.28 118.48 388.296 117.76 390.312 116.32C392.424 114.88 394.92 112.336 397.8 108.688L398.808 118.912C395.16 123.04 391.8 126.112 388.728 128.128C385.656 130.144 382.152 131.152 378.216 131.152ZM441.914 130C441.05 130 440.474 129.568 440.186 128.704L422.474 60.88C422.282 59.728 422.666 59.152 423.626 59.152H437.738C438.602 59.152 439.13 59.584 439.322 60.448L446.666 96.304C447.338 99.472 447.914 102.544 448.394 105.52C448.97 108.496 449.45 111.52 449.834 114.592H450.122C450.602 111.52 451.13 108.496 451.706 105.52C452.378 102.448 453.002 99.376 453.578 96.304L461.066 60.448C461.354 59.584 461.882 59.152 462.65 59.152H476.618C477.674 59.152 478.058 59.776 477.77 61.024L459.914 128.704C459.626 129.568 459.05 130 458.186 130H441.914ZM513.072 131.152C504.528 131.152 498.096 129.04 493.776 124.816C489.552 120.496 487.44 114.016 487.44 105.376V84.208C487.44 75.472 489.6 68.896 493.92 64.48C498.24 60.064 504.48 57.856 512.64 57.856C521.088 57.856 527.424 60.064 531.648 64.48C535.872 68.896 537.984 75.472 537.984 84.208V96.736C537.984 97.792 537.504 98.32 536.544 98.32H503.136V105.376C503.136 109.888 503.904 113.152 505.44 115.168C507.072 117.184 509.616 118.192 513.072 118.192C516.048 118.192 518.256 117.568 519.696 116.32C521.136 115.072 521.808 113.152 521.712 110.56C521.712 109.408 522.192 108.832 523.152 108.832H535.536C536.304 108.832 536.784 109.36 536.976 110.416C537.072 117.232 535.104 122.416 531.072 125.968C527.136 129.424 521.136 131.152 513.072 131.152ZM503.136 87.52H522.288V83.056C522.288 78.832 521.52 75.76 519.984 73.84C518.544 71.824 516.192 70.816 512.928 70.816C509.568 70.816 507.072 71.824 505.44 73.84C503.904 75.76 503.136 78.832 503.136 83.056V87.52ZM583.597 131.152C573.613 131.152 565.981 128.464 560.701 123.088C555.421 117.616 552.781 109.36 552.781 98.32V67.504C552.781 56.56 555.421 48.352 560.701 42.88C565.981 37.312 573.613 34.528 583.597 34.528C590.509 34.528 596.365 35.872 601.165 38.56C605.965 41.248 609.469 45.088 611.677 50.08C613.885 54.976 614.557 60.784 613.693 67.504C613.597 68.56 613.117 69.088 612.253 69.088H599.005C597.949 69.088 597.469 68.56 597.565 67.504C598.045 61.552 597.133 56.992 594.829 53.824C592.525 50.656 588.829 49.072 583.741 49.072C578.845 49.072 575.149 50.608 572.653 53.68C570.157 56.656 568.909 61.408 568.909 67.936V97.6C568.909 104.224 570.157 109.072 572.653 112.144C575.245 115.12 578.941 116.608 583.741 116.608C589.021 116.608 592.765 114.928 594.973 111.568C597.181 108.208 598.093 103.744 597.709 98.176C597.613 97.024 598.045 96.448 599.005 96.448H612.253C613.213 96.448 613.741 97.072 613.837 98.32C614.701 108.4 612.493 116.416 607.213 122.368C601.933 128.224 594.061 131.152 583.597 131.152ZM661.923 130C661.155 130 660.627 129.472 660.339 128.416C660.147 127.072 659.907 125.2 659.619 122.8C659.427 120.304 659.331 118.096 659.331 116.176L657.891 112.864V79.888C657.891 76.336 657.363 73.936 656.307 72.688C655.347 71.344 653.427 70.672 650.547 70.672C645.363 70.672 642.963 73.408 643.347 78.88C643.443 79.936 642.915 80.464 641.763 80.464H630.243C629.187 80.464 628.611 79.744 628.515 78.304C627.939 71.776 629.619 66.736 633.555 63.184C637.491 59.632 643.347 57.856 651.123 57.856C658.995 57.856 664.707 59.632 668.259 63.184C671.907 66.64 673.731 72.256 673.731 80.032V112C673.731 115.84 673.779 119.056 673.875 121.648C674.067 124.24 674.211 126.4 674.307 128.128C674.499 129.376 674.067 130 673.011 130H661.923ZM640.611 131.152C636.003 131.152 632.403 129.472 629.811 126.112C627.315 122.752 626.067 118 626.067 111.856C626.067 104.848 627.795 99.52 631.251 95.872C634.803 92.128 640.803 89.824 649.251 88.96L659.475 87.664V97.6L651.699 98.464C647.955 98.944 645.267 100.096 643.635 101.92C642.099 103.648 641.331 106.288 641.331 109.84C641.331 112.72 641.763 114.88 642.627 116.32C643.491 117.76 644.835 118.48 646.659 118.48C648.675 118.48 650.691 117.76 652.707 116.32C654.819 114.88 657.315 112.336 660.195 108.688L661.203 118.912C657.555 123.04 654.195 126.112 651.123 128.128C648.051 130.144 644.547 131.152 640.611 131.152ZM710.621 131.152C702.653 131.152 696.845 129.328 693.197 125.68C689.549 121.936 687.965 116.32 688.445 108.832C688.541 107.68 689.069 107.104 690.029 107.104H701.981C702.845 107.104 703.277 107.68 703.277 108.832C703.277 112.384 703.805 114.976 704.861 116.608C706.013 118.144 708.029 118.912 710.909 118.912C713.501 118.912 715.421 118.336 716.669 117.184C718.013 115.936 718.685 114.016 718.685 111.424C718.685 109.408 718.157 107.728 717.101 106.384C716.141 105.04 714.557 103.648 712.349 102.208L699.533 94.864C695.885 92.752 693.149 90.256 691.325 87.376C689.597 84.4 688.733 80.8 688.733 76.576C688.733 70.432 690.557 65.776 694.205 62.608C697.949 59.44 703.469 57.856 710.765 57.856C718.541 57.856 724.253 59.584 727.901 63.04C731.645 66.496 733.421 71.392 733.229 77.728C733.133 78.784 732.653 79.312 731.789 79.312H719.837C719.357 79.312 718.973 79.168 718.685 78.88C718.397 78.592 718.301 78.112 718.397 77.44C718.493 75.136 717.965 73.36 716.813 72.112C715.661 70.864 713.837 70.24 711.341 70.24C709.037 70.24 707.309 70.768 706.157 71.824C705.005 72.784 704.429 74.272 704.429 76.288C704.429 78.112 704.861 79.648 705.725 80.896C706.685 82.048 708.317 83.344 710.621 84.784L722.861 91.984C726.893 94.384 729.821 97.024 731.645 99.904C733.469 102.688 734.381 106.336 734.381 110.848C734.381 117.568 732.413 122.656 728.477 126.112C724.541 129.472 718.589 131.152 710.621 131.152ZM772.37 131.152C765.362 131.152 760.37 129.376 757.394 125.824C754.514 122.176 753.074 116.176 753.074 107.824V72.976H745.01C744.05 72.976 743.57 72.448 743.57 71.392V60.736C743.57 59.68 744.05 59.152 745.01 59.152H753.362L755.234 41.872C755.33 40.912 755.858 40.432 756.818 40.432H767.474C768.338 40.432 768.77 40.96 768.77 42.016L768.914 59.152H784.178C785.234 59.152 785.762 59.68 785.762 60.736V71.392C785.762 72.448 785.234 72.976 784.178 72.976H768.914V106.96C768.914 110.608 769.442 113.248 770.498 114.88C771.554 116.512 773.426 117.328 776.114 117.328C777.458 117.328 778.802 117.184 780.146 116.896C781.586 116.512 782.93 116.08 784.178 115.6C785.33 115.12 785.906 115.504 785.906 116.752V127.408C785.906 128.368 785.474 128.944 784.61 129.136C783.074 129.808 781.25 130.288 779.138 130.576C777.026 130.96 774.77 131.152 772.37 131.152Z" fill="white"/>
</svg>
